<svg width="1440" height="1024" viewBox="0 0 1440 1024" fill="none" xmlns="http://www.w3.org/2000/svg">
<rect width="1440" height="1024" fill="white"/>
<path d="M767.5 269.5C603.752 246.522 553.917 187.633 534 7H5.5V1016H1439V934C1392.8 714.337 1329.39 648.19 1135.5 653C977.363 653.46 937.312 607.343 939.5 452C946.243 334.165 905.956 297.619 767.5 269.5Z" fill="#D9FFD0" stroke="#D9FFD0"/>
<g clip-path="url(#clip0)">
<path d="M393.771 455.78H389.862V352.041C389.862 344.156 388.258 336.349 385.143 329.064C382.028 321.78 377.463 315.161 371.707 309.586C365.951 304.01 359.118 299.588 351.598 296.57C344.078 293.553 336.018 292 327.878 292H100.984C92.8438 292 84.7837 293.553 77.2635 296.57C69.7433 299.588 62.9103 304.01 57.1546 309.586C51.3989 315.161 46.8332 321.78 43.7182 329.064C40.6032 336.349 39 344.156 39 352.041V921.159C39 929.044 40.6032 936.851 43.7182 944.136C46.8332 951.42 51.3989 958.039 57.1546 963.614C62.9103 969.19 69.7433 973.612 77.2635 976.63C84.7837 979.647 92.8438 981.2 100.984 981.2H327.878C336.018 981.2 344.078 979.647 351.598 976.63C359.118 973.612 365.951 969.19 371.707 963.614C377.463 958.039 382.028 951.42 385.143 944.136C388.258 936.851 389.862 929.044 389.862 921.159V529.623H393.771V455.78Z" fill="#E6E6E6"/>
<path d="M330.379 307.621H300.762C302.124 310.855 302.644 314.365 302.276 317.84C301.908 321.315 300.663 324.649 298.652 327.548C296.64 330.448 293.923 332.823 290.74 334.466C287.558 336.109 284.007 336.968 280.401 336.968H150.416C146.809 336.968 143.258 336.109 140.076 334.466C136.893 332.823 134.176 330.448 132.165 327.548C130.153 324.649 128.908 321.315 128.541 317.84C128.173 314.365 128.692 310.855 130.054 307.621H102.392C96.3132 307.621 90.294 308.78 84.678 311.034C79.062 313.287 73.9592 316.59 69.6609 320.753C65.3626 324.917 61.953 329.86 59.6268 335.3C57.3006 340.74 56.1033 346.57 56.1033 352.459V920.741C56.1033 926.63 57.3006 932.46 59.6268 937.9C61.953 943.34 65.3626 948.283 69.6609 952.447C73.9592 956.61 79.062 959.913 84.678 962.166C90.294 964.42 96.3132 965.579 102.392 965.579H330.379C336.458 965.579 342.477 964.42 348.093 962.166C353.709 959.913 358.812 956.61 363.11 952.447C367.408 948.283 370.818 943.34 373.144 937.9C375.47 932.46 376.668 926.63 376.668 920.741V352.459C376.668 346.57 375.47 340.74 373.144 335.3C370.818 329.86 367.408 324.917 363.11 320.753C358.812 316.59 353.709 313.287 348.093 311.034C342.477 308.78 336.458 307.621 330.379 307.621V307.621Z" fill="white"/>
<path d="M149.216 423.146H135.604C135.125 423.146 134.666 423.331 134.328 423.658C133.989 423.986 133.799 424.431 133.799 424.894V430.682C133.799 431.146 133.989 431.59 134.328 431.918C134.666 432.246 135.125 432.43 135.604 432.43H137.859V441.102H146.96V432.43H149.216C149.695 432.43 150.154 432.246 150.492 431.918C150.831 431.59 151.021 431.146 151.021 430.682V424.894C151.021 424.431 150.831 423.986 150.492 423.658C150.154 423.331 149.695 423.146 149.216 423.146V423.146Z" fill="#E6E6E6"/>
<path d="M162.85 476.115C154.514 464.298 150.252 450.229 150.675 435.923C150.683 435.593 150.572 435.27 150.362 435.01C150.152 434.75 149.856 434.568 149.523 434.496V431.995H135.147V434.461H134.949C134.558 434.462 134.183 434.613 133.906 434.881C133.63 435.149 133.475 435.513 133.476 435.892C133.476 435.927 133.477 435.961 133.48 435.996C134.612 451.289 130.788 465.004 122.006 477.141C121.501 477.838 121.242 478.675 121.27 479.527L122.842 526.63C122.88 527.68 123.335 528.676 124.113 529.409C124.89 530.143 125.93 530.557 127.016 530.565H159.533C160.631 530.557 161.682 530.133 162.462 529.385C163.242 528.637 163.689 527.623 163.709 526.56L164.315 480.828C164.333 479.149 163.822 477.505 162.85 476.115Z" fill="#E6E6E6"/>
<path d="M157.703 491.761H129.399C128.98 491.761 128.566 491.849 128.185 492.018C127.805 492.188 127.466 492.435 127.193 492.743C126.921 493.051 126.72 493.412 126.605 493.803C126.49 494.193 126.463 494.603 126.527 495.004L130.804 521.934H155.364L160.559 495.094C160.638 494.688 160.623 494.27 160.516 493.869C160.409 493.469 160.212 493.096 159.939 492.778C159.666 492.46 159.325 492.204 158.938 492.028C158.552 491.852 158.13 491.761 157.703 491.761V491.761Z" fill="white"/>
<path d="M300.749 564.248H287.136C286.658 564.248 286.198 564.432 285.86 564.76C285.522 565.088 285.331 565.533 285.331 565.996V571.784C285.331 572.248 285.522 572.692 285.86 573.02C286.198 573.348 286.658 573.532 287.136 573.532H289.392V582.204H298.493V573.532H300.749C301.227 573.532 301.686 573.348 302.025 573.02C302.363 572.692 302.553 572.248 302.553 571.784V565.996C302.553 565.533 302.363 565.088 302.025 564.76C301.686 564.432 301.227 564.248 300.749 564.248Z" fill="#E6E6E6"/>
<path d="M314.383 617.217C306.046 605.4 301.784 591.331 302.208 577.025C302.215 576.694 302.105 576.372 301.895 576.112C301.685 575.852 301.388 575.67 301.056 575.598V573.097H286.679V575.563H286.481C286.287 575.563 286.096 575.6 285.917 575.673C285.738 575.745 285.575 575.85 285.439 575.983C285.302 576.116 285.193 576.273 285.119 576.447C285.046 576.62 285.008 576.806 285.008 576.994C285.008 577.029 285.009 577.063 285.012 577.098C286.145 592.391 282.32 606.106 273.538 618.242C273.033 618.94 272.775 619.777 272.803 620.629L274.375 667.732C274.412 668.782 274.868 669.778 275.645 670.511C276.423 671.245 277.463 671.659 278.548 671.667H311.066C312.163 671.658 313.214 671.235 313.994 670.487C314.774 669.739 315.222 668.725 315.242 667.662L315.847 621.929C315.865 620.251 315.354 618.607 314.383 617.217V617.217Z" fill="#E6E6E6"/>
<path d="M309.235 632.863H280.931C280.512 632.863 280.098 632.95 279.718 633.12C279.337 633.289 278.999 633.537 278.726 633.845C278.453 634.153 278.252 634.514 278.137 634.904C278.022 635.295 277.995 635.704 278.059 636.106L282.336 663.036H306.896L312.091 636.196C312.17 635.79 312.155 635.371 312.048 634.971C311.941 634.571 311.744 634.198 311.471 633.88C311.199 633.562 310.857 633.305 310.47 633.13C310.084 632.954 309.662 632.863 309.235 632.863H309.235Z" fill="white"/>
<path d="M130.079 763.725H123.622C123.395 763.725 123.177 763.812 123.017 763.968C122.856 764.123 122.766 764.334 122.766 764.554V767.299C122.766 767.519 122.856 767.73 123.017 767.886C123.177 768.041 123.395 768.128 123.622 768.128H124.692V772.242H129.009V768.128H130.079C130.306 768.128 130.524 768.041 130.684 767.886C130.845 767.73 130.935 767.519 130.935 767.299V764.554C130.935 764.334 130.845 764.123 130.684 763.968C130.524 763.812 130.306 763.725 130.079 763.725Z" fill="#E6E6E6"/>
<path d="M136.546 788.85C132.592 783.245 130.57 776.571 130.771 769.785C130.775 769.628 130.722 769.476 130.623 769.352C130.523 769.229 130.382 769.143 130.225 769.108V767.922H123.405V769.092H123.311C123.219 769.092 123.128 769.11 123.043 769.144C122.959 769.178 122.882 769.228 122.817 769.291C122.752 769.354 122.7 769.429 122.665 769.511C122.63 769.593 122.612 769.682 122.612 769.771C122.612 769.787 122.613 769.803 122.614 769.82C123.244 776.745 121.315 783.661 117.172 789.337C116.932 789.667 116.81 790.065 116.823 790.469L117.568 812.812C117.586 813.31 117.802 813.782 118.171 814.13C118.54 814.478 119.033 814.674 119.548 814.678H134.973C135.493 814.674 135.992 814.473 136.362 814.119C136.732 813.764 136.944 813.283 136.954 812.779L137.241 791.085C137.249 790.289 137.007 789.509 136.546 788.85V788.85Z" fill="#E6E6E6"/>
<path d="M134.326 797.063H119.609V804.191H134.326V797.063Z" fill="white"/>
<path d="M160.136 763.725H153.679C153.452 763.725 153.235 763.812 153.074 763.968C152.913 764.123 152.823 764.334 152.823 764.554V767.299C152.823 767.519 152.913 767.73 153.074 767.886C153.235 768.041 153.452 768.128 153.679 768.128H154.749V772.242H159.066V768.128H160.136C160.363 768.128 160.581 768.041 160.742 767.886C160.902 767.73 160.992 767.519 160.992 767.299V764.554C160.992 764.334 160.902 764.123 160.742 763.968C160.581 763.812 160.363 763.725 160.136 763.725Z" fill="#E6E6E6"/>
<path d="M166.604 788.85C162.649 783.245 160.628 776.571 160.829 769.785C160.832 769.628 160.78 769.476 160.68 769.352C160.58 769.229 160.44 769.143 160.282 769.108V767.922H153.463V769.092H153.369C153.277 769.092 153.186 769.11 153.101 769.144C153.016 769.178 152.939 769.228 152.874 769.291C152.809 769.354 152.758 769.429 152.723 769.511C152.688 769.593 152.67 769.682 152.67 769.771C152.67 769.787 152.67 769.803 152.672 769.82C153.301 776.745 151.373 783.661 147.229 789.337C146.99 789.667 146.867 790.065 146.88 790.469L147.626 812.812C147.644 813.31 147.86 813.782 148.229 814.13C148.598 814.478 149.091 814.674 149.606 814.678H165.03C165.551 814.674 166.049 814.473 166.419 814.119C166.789 813.764 167.002 813.283 167.011 812.779L167.298 791.085C167.307 790.289 167.065 789.509 166.604 788.85Z" fill="#E6E6E6"/>
<path d="M164.384 797.063H149.666V804.191H164.384V797.063Z" fill="white"/>
<path d="M190.194 763.725H183.737C183.51 763.725 183.292 763.812 183.131 763.968C182.971 764.123 182.881 764.334 182.881 764.554V767.299C182.881 767.519 182.971 767.73 183.131 767.886C183.292 768.041 183.51 768.128 183.737 768.128H184.807V772.242H189.124V768.128H190.194C190.421 768.128 190.639 768.041 190.799 767.886C190.96 767.73 191.05 767.519 191.05 767.299V764.554C191.05 764.334 190.96 764.123 190.799 763.968C190.639 763.812 190.421 763.725 190.194 763.725Z" fill="#E6E6E6"/>
<path d="M196.661 788.85C192.707 783.245 190.685 776.571 190.886 769.785C190.89 769.628 190.837 769.476 190.737 769.352C190.638 769.229 190.497 769.143 190.339 769.108V767.922H183.52V769.092H183.426C183.334 769.092 183.243 769.11 183.158 769.144C183.074 769.178 182.996 769.228 182.932 769.291C182.867 769.354 182.815 769.429 182.78 769.511C182.745 769.593 182.727 769.682 182.727 769.771C182.727 769.787 182.728 769.803 182.729 769.82C183.359 776.745 181.43 783.661 177.287 789.337C177.047 789.667 176.925 790.065 176.938 790.469L177.683 812.812C177.701 813.31 177.917 813.782 178.286 814.13C178.655 814.478 179.148 814.674 179.663 814.678H195.088C195.608 814.674 196.107 814.473 196.477 814.119C196.847 813.764 197.059 813.283 197.068 812.779L197.356 791.085C197.364 790.289 197.122 789.509 196.661 788.85Z" fill="#E6E6E6"/>
<path d="M194.441 797.063H179.724V804.191H194.441V797.063Z" fill="white"/>
<path d="M277.101 709.138H263.488C263.251 709.138 263.017 709.183 262.798 709.271C262.579 709.359 262.38 709.488 262.212 709.65C262.045 709.812 261.912 710.005 261.821 710.217C261.73 710.429 261.684 710.656 261.684 710.886V716.674C261.684 717.137 261.874 717.582 262.212 717.91C262.551 718.238 263.01 718.422 263.488 718.422H265.744V727.094H274.845V718.422H277.101C277.579 718.422 278.038 718.238 278.377 717.91C278.715 717.582 278.905 717.137 278.905 716.674V710.886C278.905 710.656 278.859 710.429 278.768 710.217C278.677 710.005 278.544 709.812 278.377 709.65C278.209 709.488 278.01 709.359 277.791 709.271C277.572 709.183 277.338 709.138 277.101 709.138V709.138Z" fill="#E6E6E6"/>
<path d="M290.735 762.106C282.398 750.29 278.136 736.221 278.56 721.914C278.568 721.584 278.457 721.262 278.247 721.002C278.037 720.742 277.74 720.56 277.408 720.488V717.987H263.031V720.453H262.833C262.64 720.453 262.448 720.49 262.269 720.562C262.09 720.634 261.928 720.74 261.791 720.873C261.654 721.006 261.545 721.163 261.472 721.337C261.398 721.51 261.36 721.696 261.36 721.884C261.36 721.918 261.361 721.953 261.364 721.988C262.497 737.281 258.672 750.996 249.891 763.132C249.385 763.83 249.127 764.667 249.155 765.519L250.727 812.621C250.765 813.672 251.22 814.668 251.997 815.401C252.775 816.134 253.815 816.548 254.9 816.557H287.418C288.515 816.548 289.566 816.125 290.346 815.377C291.126 814.628 291.574 813.615 291.594 812.552L292.199 766.819C292.217 765.141 291.707 763.497 290.735 762.106Z" fill="#E6E6E6"/>
<path d="M285.587 777.752H257.283C256.864 777.752 256.45 777.84 256.07 778.01C255.689 778.179 255.351 778.426 255.078 778.734C254.805 779.042 254.604 779.404 254.489 779.794C254.374 780.185 254.348 780.594 254.411 780.995L258.688 807.925H283.248L288.444 781.086C288.522 780.68 288.507 780.261 288.4 779.861C288.293 779.461 288.096 779.088 287.823 778.77C287.551 778.451 287.209 778.195 286.823 778.019C286.436 777.844 286.014 777.752 285.587 777.752V777.752Z" fill="white"/>
<path d="M284.532 536.629H203.389C209.062 506.919 207.757 471.042 203.389 432.46H284.532C280.28 471.042 279.01 506.919 284.532 536.629Z" fill="#E6E6E6"/>
<path d="M244.449 500.643C255.248 500.643 264.002 492.164 264.002 481.703C264.002 471.243 255.248 462.764 244.449 462.764C233.651 462.764 224.897 471.243 224.897 481.703C224.897 492.164 233.651 500.643 244.449 500.643Z" fill="white"/>
<path d="M210.232 674.89H129.089C134.762 645.179 133.457 609.303 129.089 570.721H210.232C205.981 609.303 204.71 645.179 210.232 674.89Z" fill="#E6E6E6"/>
<path d="M170.15 638.904C180.948 638.904 189.702 630.424 189.702 619.964C189.702 609.504 180.948 601.024 170.15 601.024C159.351 601.024 150.597 609.504 150.597 619.964C150.597 630.424 159.351 638.904 170.15 638.904Z" fill="white"/>
<path d="M330.481 543.258H249.337C255.011 513.548 253.705 477.671 249.337 439.089H330.481C326.229 477.671 324.958 513.548 330.481 543.258Z" fill="#E6E6E6"/>
<path d="M290.398 507.272C301.196 507.272 309.95 498.793 309.95 488.332C309.95 477.872 301.196 469.393 290.398 469.393C279.599 469.393 270.845 477.872 270.845 488.332C270.845 498.793 279.599 507.272 290.398 507.272Z" fill="white"/>
<path d="M330.481 538.523H249.337C255.011 508.813 253.705 472.936 249.337 434.354H330.481C326.229 472.936 324.958 508.813 330.481 538.523Z" fill="#E6E6E6"/>
<path d="M290.398 502.537C301.196 502.537 309.95 494.058 309.95 483.597C309.95 473.137 301.196 464.658 290.398 464.658C279.599 464.658 270.845 473.137 270.845 483.597C270.845 494.058 279.599 502.537 290.398 502.537Z" fill="white"/>
<path d="M330.481 543.258H249.337C255.011 513.548 253.705 477.671 249.337 439.089H330.481C326.229 477.671 324.958 513.548 330.481 543.258Z" fill="#E6E6E6"/>
<path d="M290.398 507.272C301.196 507.272 309.95 498.793 309.95 488.332C309.95 477.872 301.196 469.393 290.398 469.393C279.599 469.393 270.845 477.872 270.845 488.332C270.845 498.793 279.599 507.272 290.398 507.272Z" fill="white"/>
<path d="M349.056 530.947H83.1407V559.357H349.056V530.947Z" fill="#E6E6E6"/>
<path d="M349.056 672.049H83.1407V700.459H349.056V672.049Z" fill="#E6E6E6"/>
<path d="M349.056 813.151H83.1407V841.56H349.056V813.151Z" fill="#E6E6E6"/>
<path d="M811.626 928.408L745.379 883.02C767.721 861.937 788.043 831.916 807.477 797.973L873.724 843.361C847.253 872.483 824.829 901.062 811.626 928.408Z" fill="#6C63FF"/>
<path d="M811.644 880.084C822.443 880.084 831.197 871.605 831.197 861.145C831.197 850.684 822.443 842.205 811.644 842.205C800.846 842.205 792.092 850.684 792.092 861.145C792.092 871.605 800.846 880.084 811.644 880.084Z" fill="white"/>
<path d="M492.055 721.292H484.783C484.527 721.292 484.282 721.391 484.101 721.566C483.921 721.741 483.819 721.979 483.819 722.226V725.318C483.819 725.441 483.844 725.562 483.892 725.676C483.941 725.789 484.012 725.892 484.101 725.979C484.191 726.065 484.297 726.134 484.414 726.181C484.531 726.228 484.657 726.252 484.783 726.252H485.988V730.885H490.85V726.252H492.055C492.311 726.252 492.556 726.154 492.737 725.979C492.918 725.803 493.019 725.566 493.019 725.318V722.226C493.019 721.979 492.918 721.741 492.737 721.566C492.556 721.391 492.311 721.292 492.055 721.292V721.292Z" fill="#E6E6E6"/>
<path d="M499.339 749.589C494.885 743.276 492.608 735.76 492.835 728.118C492.839 727.941 492.78 727.769 492.668 727.63C492.555 727.491 492.397 727.394 492.219 727.356V726.02H484.539V727.337H484.433C484.33 727.337 484.227 727.357 484.132 727.395C484.036 727.434 483.949 727.49 483.876 727.561C483.803 727.632 483.745 727.716 483.706 727.809C483.666 727.902 483.646 728.001 483.646 728.101C483.646 728.12 483.647 728.138 483.648 728.157C484.357 735.955 482.185 743.745 477.519 750.137C477.249 750.509 477.111 750.957 477.126 751.412L477.966 776.575C477.986 777.136 478.229 777.668 478.645 778.06C479.06 778.451 479.616 778.673 480.195 778.677H497.567C498.153 778.672 498.714 778.446 499.131 778.047C499.548 777.647 499.787 777.106 499.798 776.538L500.121 752.107C500.131 751.21 499.858 750.332 499.339 749.589V749.589Z" fill="#6C63FF"/>
<path opacity="0.2" d="M490.539 722.3C490.539 722.834 490.32 723.347 489.93 723.725C489.54 724.102 489.011 724.315 488.459 724.315C487.907 724.315 487.378 724.102 486.988 723.725C486.598 723.347 486.379 722.834 486.379 722.3" fill="black"/>
<path d="M495.955 754.437H481.291V763.907H495.955V754.437Z" fill="white"/>
<path d="M722.179 819.594H708.566C708.088 819.594 707.629 819.778 707.29 820.106C706.952 820.433 706.762 820.878 706.762 821.342V827.129C706.762 827.593 706.952 828.038 707.29 828.366C707.629 828.693 708.088 828.878 708.566 828.878H710.822V837.549H719.923V828.878H722.179C722.657 828.878 723.116 828.693 723.455 828.366C723.793 828.038 723.983 827.593 723.983 827.129V821.342C723.983 820.878 723.793 820.433 723.455 820.106C723.116 819.778 722.657 819.594 722.179 819.594V819.594Z" fill="#E6E6E6"/>
<path d="M735.813 872.562C727.476 860.746 723.214 846.676 723.638 832.37C723.646 832.04 723.535 831.717 723.325 831.457C723.115 831.197 722.818 831.016 722.486 830.943V828.442H708.109V830.908H707.911C707.718 830.909 707.526 830.946 707.347 831.018C707.168 831.09 707.006 831.195 706.869 831.328C706.732 831.461 706.623 831.619 706.55 831.792C706.476 831.966 706.438 832.152 706.438 832.339C706.438 832.374 706.439 832.409 706.442 832.443C707.575 847.737 703.75 861.451 694.968 873.588C694.463 874.285 694.205 875.123 694.233 875.974L695.805 923.077C695.842 924.127 696.298 925.123 697.075 925.857C697.853 926.59 698.893 927.004 699.978 927.012H732.496C733.593 927.004 734.644 926.58 735.424 925.832C736.204 925.084 736.652 924.071 736.672 923.008L737.277 877.275C737.295 875.596 736.785 873.952 735.813 872.562V872.562Z" fill="#6C63FF"/>
<path opacity="0.2" d="M719.341 821.479C719.341 822.48 718.931 823.439 718.201 824.146C717.47 824.854 716.48 825.251 715.447 825.251C714.415 825.251 713.424 824.854 712.694 824.146C711.964 823.439 711.554 822.48 711.554 821.479" fill="black"/>
<path d="M730.665 888.208H702.361C701.942 888.208 701.528 888.296 701.148 888.465C700.767 888.635 700.429 888.882 700.156 889.19C699.883 889.498 699.682 889.86 699.567 890.25C699.452 890.64 699.426 891.05 699.489 891.451L703.766 918.381H728.326L733.521 891.542C733.6 891.135 733.585 890.717 733.478 890.317C733.371 889.916 733.174 889.544 732.901 889.225C732.629 888.907 732.287 888.651 731.901 888.475C731.514 888.299 731.092 888.208 730.665 888.208V888.208Z" fill="white"/>
<path d="M683.34 928.333H602.197C607.87 898.623 606.565 862.747 602.197 824.164H683.34C679.089 862.747 677.818 898.623 683.34 928.333Z" fill="#6C63FF"/>
<path d="M643.257 892.348C654.056 892.348 662.81 883.868 662.81 873.408C662.81 862.948 654.056 854.468 643.257 854.468C632.459 854.468 623.705 862.948 623.705 873.408C623.705 883.868 632.459 892.348 643.257 892.348Z" fill="white"/>
<path d="M351.445 600.499L369.661 598.894L381.253 571.625L360.553 560.396L351.445 600.499Z" fill="#FFB8B8"/>
<path d="M518.62 675.361C519.226 673.898 519.464 672.316 519.315 670.746C519.165 669.176 518.633 667.663 517.762 666.332C516.89 665 515.705 663.889 514.303 663.088C512.901 662.287 511.323 661.821 509.698 661.727L481.415 660.093L477.251 673.507L506.366 681.253C508.799 681.9 511.393 681.657 513.653 680.571C515.913 679.484 517.681 677.63 518.62 675.361V675.361Z" fill="#FFB8B8"/>
<path d="M488.251 681.478L487.939 656.308L425.117 646.598L376.719 592.83C374.201 590.033 370.721 588.214 366.925 587.711C363.129 587.208 359.273 588.055 356.072 590.095C354.134 591.33 352.5 592.963 351.285 594.877C350.069 596.791 349.303 598.941 349.04 601.173C348.777 603.406 349.023 605.668 349.761 607.798C350.499 609.928 351.712 611.876 353.312 613.502L393.24 661.099L488.251 681.478Z" fill="#575A89"/>
<path d="M337.369 964.631H353.929L395.004 784.741L437.557 840.313L462.397 960.621H478.129L474.817 831.49L419.341 693.537H364.693C349.759 719.717 338.044 746.704 351.445 774.544L337.369 964.631Z" fill="#2F2E41"/>
<path d="M452.246 975.557C452.062 976.125 452.006 976.724 452.081 977.314C452.155 977.904 452.359 978.472 452.678 978.98C452.996 979.488 453.423 979.925 453.93 980.261C454.436 980.597 455.011 980.824 455.616 980.928L496.138 987.894C497.739 988.178 499.392 987.884 500.786 987.069C502.179 986.253 503.216 984.972 503.702 983.467V983.467C504.174 982.029 504.108 980.476 503.515 979.08C502.923 977.684 501.841 976.536 500.461 975.835C491.551 971.404 483.883 964.946 478.114 957.015C473.66 961.033 468.682 960.655 463.396 957.694L457.789 958.373L452.246 975.557Z" fill="#2F2E41"/>
<path d="M329.702 975.557C329.518 976.125 329.462 976.724 329.537 977.314C329.611 977.904 329.815 978.472 330.133 978.98C330.452 979.488 330.879 979.925 331.386 980.261C331.892 980.597 332.467 980.824 333.071 980.928L373.594 987.894C375.195 988.178 376.848 987.884 378.242 987.069C379.635 986.253 380.672 984.972 381.158 983.467V983.467C381.63 982.029 381.564 980.476 380.971 979.08C380.379 977.684 379.297 976.536 377.917 975.835C369.007 971.404 361.339 964.946 355.569 957.015C351.116 961.033 346.138 960.655 340.852 957.694L335.245 958.373L329.702 975.557Z" fill="#2F2E41"/>
<path d="M381.667 581.651C394.471 581.651 404.851 571.596 404.851 559.193C404.851 546.79 394.471 536.736 381.667 536.736C368.863 536.736 358.483 546.79 358.483 559.193C358.483 571.596 368.863 581.651 381.667 581.651Z" fill="#FFB8B8"/>
<path d="M360.967 699.552L421.411 697.948L403.66 643.831C414.691 626.701 403.589 609.588 387.877 592.478L375.457 584.458L355.585 582.854C346.981 591.772 342.273 603.568 342.448 615.773C342.841 641.908 347.619 670.359 360.967 699.552Z" fill="#575A89"/>
<path d="M499.84 735.979C500.991 734.865 501.852 733.501 502.353 732.001C502.853 730.501 502.978 728.907 502.718 727.351C502.457 725.795 501.819 724.321 500.855 723.05C499.891 721.78 498.63 720.75 497.174 720.045L471.835 707.765L462.559 718.511L486.182 736.727C488.156 738.249 490.639 739.014 493.158 738.876C495.677 738.738 498.056 737.707 499.84 735.979V735.979Z" fill="#FFB8B8"/>
<path d="M469.435 730.03L479.371 706.771L425.557 673.904L402.897 606.03C401.718 602.498 399.258 599.5 395.972 597.591C392.686 595.682 388.797 594.992 385.026 595.648V595.648C382.742 596.045 380.577 596.922 378.682 598.219C376.788 599.516 375.21 601.2 374.061 603.153C372.913 605.105 372.221 607.278 372.034 609.518C371.848 611.758 372.172 614.01 372.983 616.116L390.361 675.09L469.435 730.03Z" fill="#575A89"/>
<path d="M343.579 550.371C343.579 559.109 349.438 572.641 356.827 578.442C361.799 582.345 368.37 582.181 370.903 576.838C373.502 571.357 382.46 558.475 398.227 550.371C419.246 539.567 390.773 521.085 370.903 523.903C355.972 526.021 343.579 535.753 343.579 550.371Z" fill="#2F2E41"/>
<path d="M357.655 538.34C366.801 538.34 374.215 531.158 374.215 522.299C374.215 513.439 366.801 506.258 357.655 506.258C348.509 506.258 341.095 513.439 341.095 522.299C341.095 531.158 348.509 538.34 357.655 538.34Z" fill="#2F2E41"/>
<path d="M376.699 516.684C376.697 512.64 375.118 508.746 372.277 505.783C369.436 502.819 365.544 501.005 361.381 500.704C361.792 500.674 362.204 500.643 362.623 500.643C367.015 500.643 371.227 502.333 374.333 505.342C377.438 508.35 379.183 512.43 379.183 516.684C379.183 520.939 377.438 525.019 374.333 528.027C371.227 531.035 367.015 532.725 362.623 532.725C362.204 532.725 361.792 532.694 361.381 532.665C365.544 532.364 369.436 530.55 372.277 527.586C375.118 524.622 376.697 520.728 376.699 516.684Z" fill="#2F2E41"/>
<path d="M382.081 567.214C384.139 567.214 385.807 565.059 385.807 562.401C385.807 559.744 384.139 557.589 382.081 557.589C380.023 557.589 378.355 559.744 378.355 562.401C378.355 565.059 380.023 567.214 382.081 567.214Z" fill="#FFB8B8"/>
<path d="M851.279 935.213H593.491L538.902 685.242H492.314V674.026H548.287L602.876 923.996H851.279V935.213Z" fill="#3F3D56"/>
<path d="M631.268 980.881C644.972 980.881 656.081 970.119 656.081 956.845C656.081 943.57 644.972 932.809 631.268 932.809C617.564 932.809 606.455 943.57 606.455 956.845C606.455 970.119 617.564 980.881 631.268 980.881Z" fill="#3F3D56"/>
<path d="M816.541 980.881C830.245 980.881 841.354 970.119 841.354 956.845C841.354 943.57 830.245 932.809 816.541 932.809C802.837 932.809 791.727 943.57 791.727 956.845C791.727 970.119 802.837 980.881 816.541 980.881Z" fill="#3F3D56"/>
<path d="M846.579 929.931H595.766L551.512 718.091H888.108C889.826 718.091 891.523 718.451 893.083 719.147C894.643 719.843 896.028 720.859 897.145 722.123C898.261 723.387 899.081 724.871 899.549 726.472C900.017 728.073 900.122 729.753 899.856 731.396L858.325 920.201C857.896 922.917 856.474 925.394 854.318 927.18C852.162 928.966 849.416 929.942 846.579 929.931V929.931ZM598.489 926.726H846.579C848.626 926.735 850.608 926.03 852.164 924.741C853.72 923.452 854.746 921.664 855.055 919.703L896.586 730.899C896.778 729.712 896.703 728.5 896.366 727.344C896.028 726.189 895.436 725.118 894.631 724.205C893.825 723.293 892.825 722.56 891.699 722.058C890.573 721.555 889.348 721.295 888.108 721.295H555.528L598.489 926.726Z" fill="#3F3D56"/>
<path d="M644.524 929.253L615.543 719.954L618.807 719.432L647.788 928.731L644.524 929.253Z" fill="#3F3D56"/>
<path d="M805.67 927.646L802.404 927.133L830.538 719.436L833.805 719.949L805.67 927.646Z" fill="#3F3D56"/>
<path d="M728.893 719.693H725.584V928.992H728.893V719.693Z" fill="#3F3D56"/>
<path d="M568.412 775.776L568.404 778.981L888.656 779.732L888.664 776.527L568.412 775.776Z" fill="#3F3D56"/>
<path d="M866.065 874.774L584.716 876.637L584.739 879.842L866.087 877.979L866.065 874.774Z" fill="#3F3D56"/>
<path d="M497.277 687.645C507.326 687.645 515.473 683.341 515.473 678.031C515.473 672.721 507.326 668.417 497.277 668.417C487.227 668.417 479.08 672.721 479.08 678.031C479.08 683.341 487.227 687.645 497.277 687.645Z" fill="#3F3D56"/>
</g>
<defs>
<clipPath id="clip0">
<rect width="861" height="696" fill="white" transform="translate(39 292)"/>
</clipPath>
</defs>
</svg>
