<svg width="1394" height="794" viewBox="0 0 1394 794" fill="none" xmlns="http://www.w3.org/2000/svg">
<g clip-path="url(#clip0)">
<rect width="1394" height="794" fill="white"/>
<path d="M767.266 219.55C603.461 200.944 553.608 153.261 533.684 7H5V824H1439V757.604C1392.78 579.739 1329.35 526.179 1135.39 530.074C977.202 530.447 937.137 493.105 939.326 367.322C946.072 271.91 905.77 242.318 767.266 219.55Z" fill="#D9FFD0" stroke="#D9FFD0"/>
<g clip-path="url(#clip1)">
<path d="M304.126 294.953H301.138V210.74C301.138 204.34 299.913 198.002 297.532 192.088C295.152 186.175 291.663 180.802 287.264 176.276C282.865 171.75 277.643 168.16 271.896 165.71C266.149 163.261 259.989 162 253.769 162H80.3696C74.1489 162 67.9892 163.261 62.242 165.71C56.4949 168.16 51.2729 171.75 46.8742 176.276C42.4755 180.802 38.9863 186.175 36.6058 192.088C34.2252 198.002 33 204.34 33 210.74V672.74C33 679.14 34.2252 685.478 36.6058 691.392C38.9863 697.305 42.4756 702.678 46.8742 707.204C51.2729 711.73 56.4949 715.32 62.242 717.77C67.9892 720.219 74.149 721.48 80.3696 721.48H253.769C259.989 721.48 266.149 720.219 271.896 717.77C277.643 715.32 282.865 711.73 287.264 707.204C291.663 702.678 295.152 697.305 297.532 691.392C299.913 685.478 301.138 679.14 301.138 672.74V354.898H304.126V294.953Z" fill="#E6E6E6"/>
<path d="M255.68 174.681H233.046C234.086 177.306 234.484 180.155 234.203 182.976C233.921 185.797 232.97 188.504 231.433 190.857C229.896 193.211 227.819 195.14 225.387 196.473C222.955 197.807 220.241 198.504 217.485 198.505H118.147C115.391 198.504 112.677 197.807 110.245 196.473C107.813 195.14 105.736 193.211 104.199 190.857C102.662 188.504 101.711 185.797 101.429 182.976C101.148 180.155 101.545 177.306 102.586 174.681H81.4459C76.8003 174.681 72.2003 175.622 67.9084 177.451C63.6165 179.28 59.7168 181.962 56.4319 185.341C53.1471 188.721 50.5414 192.734 48.7636 197.15C46.9858 201.566 46.0708 206.299 46.0708 211.079V672.401C46.0708 677.181 46.9858 681.914 48.7636 686.33C50.5413 690.746 53.147 694.758 56.4319 698.138C59.7168 701.518 63.6165 704.199 67.9084 706.029C72.2003 707.858 76.8003 708.799 81.4459 708.799H255.68C260.325 708.799 264.925 707.858 269.217 706.029C273.509 704.199 277.409 701.518 280.694 698.138C283.979 694.758 286.584 690.746 288.362 686.33C290.14 681.914 291.055 677.181 291.055 672.401V211.079C291.055 206.299 290.14 201.566 288.362 197.15C286.584 192.734 283.979 188.721 280.694 185.341C277.409 181.962 273.509 179.28 269.217 177.451C264.925 175.622 260.325 174.681 255.68 174.681V174.681Z" fill="white"/>
<path d="M117.23 268.462H106.827C106.461 268.462 106.111 268.612 105.852 268.878C105.593 269.144 105.448 269.505 105.448 269.881V274.58C105.448 274.956 105.593 275.317 105.852 275.583C106.111 275.849 106.461 275.999 106.827 275.999H108.551V283.038H115.506V275.999H117.23C117.596 275.999 117.947 275.849 118.205 275.583C118.464 275.317 118.609 274.956 118.609 274.58V269.881C118.609 269.505 118.464 269.144 118.205 268.878C117.947 268.612 117.596 268.462 117.23 268.462V268.462Z" fill="#E6E6E6"/>
<path d="M127.65 311.461C121.279 301.869 118.022 290.448 118.345 278.834C118.351 278.566 118.267 278.304 118.106 278.093C117.946 277.882 117.719 277.734 117.465 277.676V275.646H106.478V277.647H106.327C106.028 277.648 105.741 277.77 105.53 277.988C105.319 278.206 105.2 278.501 105.201 278.809C105.201 278.837 105.202 278.865 105.204 278.893C106.069 291.308 103.147 302.442 96.4354 312.294C96.0492 312.86 95.8519 313.54 95.8731 314.231L97.0745 352.468C97.1034 353.321 97.4513 354.129 98.0455 354.725C98.6398 355.32 99.4346 355.656 100.264 355.663H125.115C125.954 355.656 126.757 355.312 127.353 354.705C127.949 354.097 128.291 353.275 128.306 352.412L128.769 315.287C128.783 313.924 128.392 312.589 127.65 311.461Z" fill="#E6E6E6"/>
<path d="M123.716 324.162H102.085C101.765 324.162 101.449 324.233 101.158 324.371C100.867 324.509 100.608 324.709 100.4 324.959C100.191 325.209 100.038 325.503 99.9499 325.82C99.862 326.137 99.8416 326.469 99.8903 326.795L103.159 348.656H121.928L125.899 326.868C125.959 326.538 125.948 326.199 125.866 325.874C125.784 325.549 125.633 325.246 125.425 324.988C125.216 324.73 124.955 324.522 124.66 324.379C124.365 324.236 124.042 324.162 123.716 324.162V324.162Z" fill="white"/>
<path d="M233.036 383.006H222.633C222.267 383.006 221.916 383.155 221.657 383.422C221.399 383.688 221.253 384.049 221.253 384.425V389.123C221.253 389.5 221.399 389.861 221.657 390.127C221.916 390.393 222.267 390.543 222.633 390.543H224.356V397.582H231.312V390.543H233.036C233.401 390.543 233.752 390.393 234.011 390.127C234.269 389.861 234.415 389.5 234.415 389.123V384.425C234.415 384.049 234.269 383.688 234.011 383.422C233.752 383.155 233.401 383.006 233.036 383.006Z" fill="#E6E6E6"/>
<path d="M243.455 426.005C237.084 416.412 233.827 404.991 234.151 393.378C234.157 393.11 234.072 392.848 233.911 392.637C233.751 392.426 233.524 392.278 233.27 392.219V390.189H222.283V392.191H222.132C221.984 392.191 221.837 392.222 221.701 392.28C221.564 392.339 221.44 392.424 221.335 392.532C221.231 392.64 221.148 392.768 221.091 392.909C221.035 393.05 221.006 393.2 221.006 393.353C221.006 393.381 221.007 393.409 221.009 393.437C221.875 405.852 218.952 416.986 212.241 426.838C211.855 427.404 211.657 428.084 211.678 428.775L212.88 467.012C212.909 467.865 213.257 468.673 213.851 469.269C214.445 469.864 215.24 470.2 216.069 470.207H240.92C241.759 470.2 242.562 469.856 243.158 469.249C243.754 468.641 244.096 467.819 244.111 466.956L244.574 429.831C244.588 428.468 244.198 427.133 243.455 426.005V426.005Z" fill="#E6E6E6"/>
<path d="M239.521 438.706H217.891C217.57 438.706 217.254 438.777 216.963 438.915C216.672 439.053 216.414 439.253 216.205 439.503C215.997 439.753 215.843 440.047 215.755 440.364C215.667 440.68 215.647 441.013 215.696 441.339L218.964 463.2H237.734L241.704 441.412C241.764 441.082 241.753 440.743 241.671 440.418C241.589 440.093 241.439 439.79 241.23 439.532C241.022 439.273 240.761 439.066 240.465 438.923C240.17 438.78 239.848 438.706 239.521 438.706H239.521Z" fill="white"/>
<path d="M102.605 544.937H97.6703C97.4968 544.937 97.3304 545.008 97.2077 545.135C97.085 545.261 97.0161 545.432 97.0161 545.611V547.839C97.0161 548.018 97.085 548.189 97.2077 548.315C97.3304 548.441 97.4968 548.512 97.6703 548.512H98.4881V551.852H101.787V548.512H102.605C102.778 548.512 102.945 548.441 103.068 548.315C103.19 548.189 103.259 548.018 103.259 547.839V545.611C103.259 545.432 103.19 545.261 103.068 545.135C102.945 545.008 102.778 544.937 102.605 544.937Z" fill="#E6E6E6"/>
<path d="M107.548 565.334C104.525 560.784 102.98 555.366 103.134 549.857C103.137 549.73 103.097 549.606 103.021 549.506C102.944 549.405 102.837 549.336 102.716 549.308V548.345H97.5047V549.294H97.4329C97.3627 549.294 97.2932 549.309 97.2283 549.336C97.1635 549.364 97.1046 549.405 97.055 549.456C97.0054 549.507 96.9661 549.568 96.9393 549.635C96.9125 549.701 96.8988 549.773 96.8989 549.845C96.8989 549.859 96.8994 549.872 96.9003 549.885C97.3814 555.507 95.9074 561.121 92.7411 565.729C92.5579 565.997 92.4643 566.32 92.4744 566.648L93.0442 584.785C93.0579 585.19 93.2229 585.573 93.5048 585.856C93.7867 586.138 94.1637 586.297 94.5571 586.301H106.345C106.743 586.297 107.124 586.134 107.407 585.846C107.689 585.558 107.852 585.168 107.859 584.759L108.078 567.148C108.085 566.502 107.9 565.869 107.548 565.334V565.334Z" fill="#E6E6E6"/>
<path d="M105.851 572.001H94.6035V577.788H105.851V572.001Z" fill="white"/>
<path d="M125.576 544.937H120.641C120.468 544.937 120.301 545.008 120.178 545.135C120.056 545.261 119.987 545.432 119.987 545.611V547.839C119.987 548.018 120.056 548.189 120.178 548.315C120.301 548.441 120.468 548.512 120.641 548.512H121.459V551.852H124.758V548.512H125.576C125.749 548.512 125.916 548.441 126.038 548.315C126.161 548.189 126.23 548.018 126.23 547.839V545.611C126.23 545.432 126.161 545.261 126.038 545.135C125.916 545.008 125.749 544.937 125.576 544.937Z" fill="#E6E6E6"/>
<path d="M130.518 565.334C127.496 560.784 125.951 555.366 126.105 549.857C126.107 549.73 126.067 549.606 125.991 549.506C125.915 549.405 125.808 549.336 125.687 549.308V548.345H120.475V549.294H120.404C120.333 549.294 120.264 549.309 120.199 549.336C120.134 549.364 120.075 549.405 120.026 549.456C119.976 549.507 119.937 549.568 119.91 549.635C119.883 549.701 119.869 549.773 119.87 549.845C119.87 549.859 119.87 549.872 119.871 549.885C120.352 555.507 118.878 561.121 115.712 565.729C115.529 565.997 115.435 566.32 115.445 566.648L116.015 584.785C116.029 585.19 116.194 585.573 116.476 585.856C116.757 586.138 117.134 586.297 117.528 586.301H129.316C129.714 586.297 130.094 586.134 130.377 585.846C130.66 585.558 130.822 585.168 130.83 584.759L131.049 567.148C131.056 566.502 130.87 565.869 130.518 565.334Z" fill="#E6E6E6"/>
<path d="M128.822 572.001H117.574V577.788H128.822V572.001Z" fill="white"/>
<path d="M148.546 544.937H143.612C143.438 544.937 143.272 545.008 143.149 545.135C143.026 545.261 142.958 545.432 142.958 545.611V547.839C142.958 548.018 143.026 548.189 143.149 548.315C143.272 548.441 143.438 548.512 143.612 548.512H144.429V551.852H147.729V548.512H148.546C148.72 548.512 148.886 548.441 149.009 548.315C149.132 548.189 149.201 548.018 149.201 547.839V545.611C149.201 545.432 149.132 545.261 149.009 545.135C148.886 545.008 148.72 544.937 148.546 544.937Z" fill="#E6E6E6"/>
<path d="M153.489 565.334C150.467 560.784 148.922 555.366 149.075 549.857C149.078 549.73 149.038 549.606 148.962 549.506C148.886 549.405 148.778 549.336 148.658 549.308V548.345H143.446V549.294H143.374C143.304 549.294 143.235 549.309 143.17 549.336C143.105 549.364 143.046 549.405 142.996 549.456C142.947 549.507 142.908 549.568 142.881 549.635C142.854 549.701 142.84 549.773 142.84 549.845C142.84 549.859 142.841 549.872 142.842 549.885C143.323 555.507 141.849 561.121 138.682 565.729C138.499 565.997 138.406 566.32 138.416 566.648L138.986 584.785C138.999 585.19 139.164 585.573 139.446 585.856C139.728 586.138 140.105 586.297 140.499 586.301H152.286C152.684 586.297 153.065 586.134 153.348 585.846C153.631 585.558 153.793 585.168 153.8 584.759L154.02 567.148C154.026 566.502 153.841 565.869 153.489 565.334Z" fill="#E6E6E6"/>
<path d="M151.792 572.001H140.545V577.788H151.792V572.001Z" fill="white"/>
<path d="M214.963 500.625H204.56C204.379 500.625 204.2 500.662 204.032 500.733C203.865 500.804 203.713 500.909 203.585 501.041C203.457 501.172 203.355 501.329 203.286 501.501C203.217 501.673 203.181 501.858 203.181 502.044V506.742C203.181 507.119 203.326 507.48 203.585 507.746C203.844 508.012 204.194 508.161 204.56 508.161H206.284V515.201H213.239V508.161H214.963C215.329 508.161 215.68 508.012 215.938 507.746C216.197 507.48 216.342 507.119 216.342 506.742V502.044C216.342 501.858 216.307 501.673 216.237 501.501C216.168 501.329 216.066 501.172 215.938 501.041C215.81 500.909 215.658 500.804 215.491 500.733C215.324 500.662 215.144 500.625 214.963 500.625V500.625Z" fill="#E6E6E6"/>
<path d="M225.383 543.624C219.012 534.031 215.755 522.61 216.078 510.997C216.084 510.729 216 510.467 215.839 510.256C215.679 510.045 215.452 509.897 215.198 509.838V507.808H204.211V509.81H204.06C203.912 509.81 203.765 509.841 203.628 509.899C203.492 509.957 203.367 510.043 203.263 510.151C203.158 510.259 203.075 510.387 203.019 510.528C202.962 510.668 202.933 510.819 202.934 510.972C202.934 511 202.935 511.028 202.937 511.056C203.802 523.471 200.88 534.604 194.168 544.456C193.782 545.023 193.585 545.702 193.606 546.394L194.807 584.631C194.836 585.484 195.184 586.292 195.778 586.887C196.373 587.483 197.168 587.819 197.997 587.826H222.848C223.687 587.819 224.49 587.475 225.086 586.867C225.682 586.26 226.024 585.437 226.039 584.574L226.502 547.449C226.516 546.087 226.125 544.752 225.383 543.624Z" fill="#E6E6E6"/>
<path d="M221.449 556.325H199.818C199.498 556.325 199.182 556.396 198.891 556.534C198.6 556.671 198.341 556.872 198.133 557.122C197.924 557.372 197.771 557.666 197.683 557.982C197.595 558.299 197.575 558.632 197.623 558.957L200.892 580.819H219.661L223.632 559.031C223.692 558.701 223.68 558.362 223.599 558.037C223.517 557.712 223.366 557.409 223.158 557.151C222.949 556.892 222.688 556.684 222.393 556.542C222.097 556.399 221.775 556.325 221.449 556.325V556.325Z" fill="white"/>
<path d="M220.642 360.585H158.631C162.966 336.467 161.969 307.343 158.631 276.023H220.642C217.393 307.343 216.422 336.467 220.642 360.585Z" fill="#E6E6E6"/>
<path d="M190.01 331.373C198.263 331.373 204.953 324.489 204.953 315.998C204.953 307.506 198.263 300.623 190.01 300.623C181.758 300.623 175.068 307.506 175.068 315.998C175.068 324.489 181.758 331.373 190.01 331.373Z" fill="white"/>
<path d="M163.86 472.823H101.849C106.184 448.705 105.187 419.581 101.849 388.26H163.86C160.611 419.581 159.64 448.705 163.86 472.823Z" fill="#E6E6E6"/>
<path d="M133.228 443.61C141.481 443.61 148.171 436.727 148.171 428.235C148.171 419.744 141.481 412.86 133.228 412.86C124.975 412.86 118.285 419.744 118.285 428.235C118.285 436.727 124.975 443.61 133.228 443.61Z" fill="white"/>
<path d="M255.758 365.966H193.746C198.081 341.848 197.084 312.724 193.746 281.404H255.758C252.508 312.725 251.537 341.848 255.758 365.966Z" fill="#E6E6E6"/>
<path d="M225.125 336.754C233.378 336.754 240.068 329.87 240.068 321.379C240.068 312.888 233.378 306.004 225.125 306.004C216.873 306.004 210.183 312.888 210.183 321.379C210.183 329.87 216.873 336.754 225.125 336.754Z" fill="white"/>
<path d="M255.758 362.123H193.746C198.081 338.004 197.084 308.881 193.746 277.56H255.758C252.508 308.881 251.537 338.004 255.758 362.123Z" fill="#E6E6E6"/>
<path d="M225.125 332.91C233.378 332.91 240.068 326.027 240.068 317.535C240.068 309.044 233.378 302.16 225.125 302.16C216.873 302.16 210.183 309.044 210.183 317.535C210.183 326.027 216.873 332.91 225.125 332.91Z" fill="white"/>
<path d="M255.758 365.966H193.746C198.081 341.848 197.084 312.724 193.746 281.404H255.758C252.508 312.725 251.537 341.848 255.758 365.966Z" fill="#E6E6E6"/>
<path d="M225.125 336.754C233.378 336.754 240.068 329.87 240.068 321.379C240.068 312.888 233.378 306.004 225.125 306.004C216.873 306.004 210.183 312.888 210.183 321.379C210.183 329.87 216.873 336.754 225.125 336.754Z" fill="white"/>
<path d="M269.953 355.973H66.7334V379.035H269.953V355.973Z" fill="#E6E6E6"/>
<path d="M269.953 470.517H66.7334V493.579H269.953V470.517Z" fill="#E6E6E6"/>
<path d="M269.953 585.06H66.7334V608.123H269.953V585.06Z" fill="#E6E6E6"/>
<path d="M623.462 678.624L572.834 641.779C589.909 624.664 605.439 600.294 620.291 572.74L670.919 609.585C650.689 633.225 633.552 656.426 623.462 678.624Z" fill="#6C63FF"/>
<path d="M623.476 639.396C631.729 639.396 638.419 632.512 638.419 624.021C638.419 615.53 631.729 608.646 623.476 608.646C615.223 608.646 608.533 615.53 608.533 624.021C608.533 632.512 615.223 639.396 623.476 639.396Z" fill="white"/>
<path d="M379.237 510.492H373.68C373.484 510.492 373.297 510.572 373.159 510.714C373.021 510.856 372.943 511.049 372.943 511.25V513.76C372.943 513.859 372.962 513.958 372.999 514.05C373.036 514.142 373.09 514.225 373.159 514.296C373.227 514.366 373.308 514.422 373.398 514.46C373.487 514.498 373.583 514.518 373.68 514.518H374.601V518.279H378.316V514.518H379.237C379.433 514.518 379.62 514.438 379.758 514.296C379.896 514.154 379.974 513.961 379.974 513.76V511.25C379.974 511.049 379.896 510.856 379.758 510.714C379.62 510.572 379.433 510.492 379.237 510.492V510.492Z" fill="#E6E6E6"/>
<path d="M384.804 533.462C381.4 528.338 379.66 522.237 379.833 516.032C379.836 515.889 379.791 515.749 379.705 515.637C379.619 515.524 379.498 515.445 379.363 515.414V514.329H373.493V515.399H373.412C373.333 515.399 373.255 515.415 373.182 515.446C373.109 515.477 373.043 515.523 372.987 515.581C372.931 515.638 372.887 515.707 372.856 515.782C372.826 515.857 372.811 515.938 372.811 516.019C372.811 516.034 372.811 516.049 372.813 516.064C373.354 522.395 371.694 528.718 368.128 533.907C367.922 534.21 367.817 534.573 367.828 534.942L368.47 555.369C368.485 555.824 368.671 556.256 368.989 556.574C369.306 556.892 369.731 557.072 370.174 557.075H383.449C383.897 557.072 384.326 556.888 384.645 556.564C384.963 556.239 385.146 555.8 385.154 555.339L385.401 535.506C385.409 534.778 385.2 534.065 384.804 533.462V533.462Z" fill="#6C63FF"/>
<path opacity="0.2" d="M378.079 511.309C378.079 511.743 377.911 512.159 377.613 512.466C377.315 512.773 376.911 512.945 376.489 512.945C376.067 512.945 375.663 512.773 375.365 512.466C375.067 512.159 374.899 511.743 374.899 511.309" fill="black"/>
<path d="M382.218 537.398H371.011V545.086H382.218V537.398Z" fill="white"/>
<path d="M555.104 590.291H544.701C544.335 590.291 543.984 590.44 543.726 590.706C543.467 590.972 543.322 591.333 543.322 591.71V596.408C543.322 596.785 543.467 597.145 543.726 597.412C543.984 597.678 544.335 597.827 544.701 597.827H546.425V604.867H553.38V597.827H555.104C555.47 597.827 555.821 597.678 556.079 597.412C556.338 597.145 556.483 596.785 556.483 596.408V591.71C556.483 591.333 556.338 590.972 556.079 590.706C555.821 590.44 555.47 590.291 555.104 590.291V590.291Z" fill="#E6E6E6"/>
<path d="M565.524 633.29C559.153 623.697 555.896 612.276 556.219 600.662C556.225 600.394 556.14 600.133 555.98 599.922C555.819 599.71 555.593 599.563 555.339 599.504V597.474H544.352V599.476H544.2C544.052 599.476 543.906 599.506 543.769 599.565C543.632 599.623 543.508 599.709 543.404 599.817C543.299 599.925 543.216 600.053 543.16 600.194C543.103 600.334 543.074 600.485 543.075 600.637C543.075 600.666 543.076 600.694 543.078 600.722C543.943 613.137 541.02 624.27 534.309 634.122C533.923 634.688 533.726 635.368 533.747 636.06L534.948 674.297C534.977 675.15 535.325 675.958 535.919 676.553C536.514 677.149 537.308 677.485 538.138 677.491H562.988C563.827 677.484 564.63 677.141 565.226 676.533C565.823 675.926 566.165 675.103 566.18 674.24L566.643 637.115C566.657 635.753 566.266 634.418 565.524 633.29V633.29Z" fill="#6C63FF"/>
<path opacity="0.2" d="M552.935 591.822C552.935 592.634 552.622 593.412 552.064 593.987C551.506 594.561 550.749 594.883 549.96 594.883C549.171 594.883 548.414 594.561 547.856 593.987C547.298 593.412 546.984 592.634 546.984 591.822" fill="black"/>
<path d="M561.59 645.991H539.959C539.639 645.991 539.323 646.062 539.032 646.2C538.741 646.337 538.482 646.538 538.274 646.788C538.065 647.038 537.912 647.331 537.824 647.648C537.736 647.965 537.716 648.298 537.764 648.623L541.033 670.485H559.802L563.772 648.697C563.833 648.367 563.821 648.027 563.739 647.702C563.658 647.377 563.507 647.075 563.299 646.816C563.09 646.558 562.829 646.35 562.534 646.207C562.238 646.065 561.916 645.991 561.59 645.991V645.991Z" fill="white"/>
<path d="M525.423 678.564H463.411C467.746 654.445 466.749 625.322 463.411 594.001H525.423C522.173 625.322 521.202 654.446 525.423 678.564Z" fill="#6C63FF"/>
<path d="M494.79 649.351C503.043 649.351 509.733 642.468 509.733 633.976C509.733 625.485 503.043 618.601 494.79 618.601C486.538 618.601 479.848 625.485 479.848 633.976C479.848 642.468 486.538 649.351 494.79 649.351Z" fill="white"/>
<path d="M271.779 412.434L285.7 411.131L294.559 388.995L278.74 379.879L271.779 412.434Z" fill="#FFB8B8"/>
<path d="M399.539 473.205C400.002 472.018 400.184 470.734 400.07 469.459C399.956 468.185 399.549 466.957 398.883 465.876C398.217 464.795 397.311 463.892 396.24 463.242C395.168 462.592 393.962 462.214 392.72 462.137L371.106 460.811L367.923 471.7L390.174 477.988C392.034 478.514 394.016 478.316 395.743 477.434C397.47 476.552 398.821 475.047 399.539 473.205V473.205Z" fill="#FFB8B8"/>
<path d="M376.33 478.171L376.092 457.738L328.081 449.856L291.094 406.208C289.17 403.937 286.511 402.461 283.609 402.053C280.708 401.645 277.762 402.332 275.315 403.988C273.834 404.991 272.585 406.316 271.656 407.87C270.728 409.424 270.142 411.169 269.941 412.981C269.74 414.794 269.928 416.63 270.492 418.359C271.056 420.088 271.983 421.669 273.206 422.99L303.72 461.628L376.33 478.171Z" fill="#575A89"/>
<path d="M261.022 708.029H273.677L305.068 561.998L337.588 607.11L356.572 704.774H368.595L366.064 599.948L323.667 487.96H281.904C270.491 509.213 261.538 531.12 271.779 553.721L261.022 708.029Z" fill="#2F2E41"/>
<path d="M348.814 716.899C348.674 717.36 348.631 717.846 348.688 718.325C348.745 718.804 348.9 719.266 349.144 719.678C349.387 720.09 349.714 720.445 350.101 720.717C350.488 720.99 350.927 721.175 351.389 721.259L382.357 726.914C383.581 727.144 384.845 726.906 385.909 726.244C386.974 725.582 387.767 724.542 388.138 723.32V723.32C388.499 722.153 388.448 720.892 387.995 719.759C387.543 718.626 386.716 717.693 385.661 717.125C378.852 713.528 372.992 708.285 368.583 701.847C365.179 705.108 361.375 704.802 357.335 702.398L353.05 702.949L348.814 716.899Z" fill="#2F2E41"/>
<path d="M255.162 716.899C255.022 717.36 254.979 717.846 255.036 718.325C255.093 718.804 255.248 719.266 255.492 719.678C255.736 720.09 256.062 720.445 256.449 720.717C256.836 720.99 257.276 721.175 257.737 721.259L288.706 726.914C289.93 727.144 291.193 726.906 292.258 726.244C293.322 725.582 294.115 724.542 294.486 723.32V723.32C294.847 722.153 294.797 720.892 294.344 719.759C293.891 718.626 293.064 717.693 292.01 717.125C285.2 713.528 279.34 708.285 274.931 701.847C271.527 705.108 267.723 704.802 263.684 702.398L259.399 702.949L255.162 716.899Z" fill="#2F2E41"/>
<path d="M294.876 397.133C304.661 397.133 312.593 388.971 312.593 378.902C312.593 368.834 304.661 360.672 294.876 360.672C285.09 360.672 277.158 368.834 277.158 378.902C277.158 388.971 285.09 397.133 294.876 397.133Z" fill="#FFB8B8"/>
<path d="M279.056 492.844L325.249 491.541L311.683 447.61C320.114 433.704 311.629 419.812 299.621 405.923L290.13 399.412L274.943 398.11C268.368 405.349 264.77 414.926 264.903 424.833C265.204 446.049 268.855 469.145 279.056 492.844Z" fill="#575A89"/>
<path d="M385.187 522.414C386.066 521.51 386.725 520.403 387.107 519.185C387.489 517.967 387.585 516.673 387.386 515.41C387.187 514.147 386.699 512.95 385.963 511.919C385.226 510.888 384.262 510.051 383.149 509.479L363.785 499.51L356.696 508.233L374.749 523.021C376.257 524.256 378.155 524.878 380.08 524.766C382.005 524.654 383.823 523.817 385.187 522.414V522.414Z" fill="#FFB8B8"/>
<path d="M361.95 517.585L369.544 498.703L328.417 472.023L311.1 416.923C310.199 414.057 308.319 411.623 305.808 410.073C303.297 408.524 300.325 407.963 297.442 408.496V408.496C295.697 408.818 294.042 409.531 292.595 410.583C291.147 411.636 289.941 413.003 289.063 414.588C288.185 416.173 287.656 417.937 287.514 419.755C287.372 421.574 287.619 423.402 288.239 425.111L301.52 472.985L361.95 517.585Z" fill="#575A89"/>
<path d="M265.768 371.741C265.768 378.834 270.245 389.82 275.892 394.529C279.692 397.697 284.713 397.564 286.649 393.227C288.636 388.777 295.482 378.319 307.531 371.741C323.594 362.971 301.835 347.967 286.649 350.254C275.238 351.974 265.768 359.874 265.768 371.741Z" fill="#2F2E41"/>
<path d="M276.525 361.974C283.514 361.974 289.181 356.144 289.181 348.952C289.181 341.761 283.514 335.93 276.525 335.93C269.535 335.93 263.869 341.761 263.869 348.952C263.869 356.144 269.535 361.974 276.525 361.974Z" fill="#2F2E41"/>
<path d="M291.079 344.395C291.078 341.112 289.871 337.951 287.7 335.545C285.529 333.139 282.554 331.666 279.372 331.422C279.687 331.398 280.001 331.373 280.322 331.373C283.678 331.373 286.897 332.745 289.27 335.187C291.644 337.629 292.977 340.941 292.977 344.395C292.977 347.848 291.644 351.16 289.27 353.602C286.897 356.045 283.678 357.417 280.322 357.417C280.001 357.417 279.687 357.391 279.372 357.367C282.554 357.123 285.529 355.65 287.7 353.244C289.871 350.839 291.078 347.678 291.079 344.395Z" fill="#2F2E41"/>
<path d="M295.192 385.413C296.765 385.413 298.04 383.664 298.04 381.507C298.04 379.349 296.765 377.6 295.192 377.6C293.619 377.6 292.344 379.349 292.344 381.507C292.344 383.664 293.619 385.413 295.192 385.413Z" fill="#FFB8B8"/>
<path d="M653.766 684.149H456.757L415.039 481.226H379.435V472.121H422.211L463.93 675.043H653.766V684.149Z" fill="#3F3D56"/>
<path d="M485.628 721.221C496.101 721.221 504.591 712.485 504.591 701.709C504.591 690.933 496.101 682.197 485.628 682.197C475.155 682.197 466.665 690.933 466.665 701.709C466.665 712.485 475.155 721.221 485.628 721.221Z" fill="#3F3D56"/>
<path d="M627.218 721.221C637.691 721.221 646.181 712.485 646.181 701.709C646.181 690.933 637.691 682.197 627.218 682.197C616.745 682.197 608.255 690.933 608.255 701.709C608.255 712.485 616.745 721.221 627.218 721.221Z" fill="#3F3D56"/>
<path d="M650.174 679.861H458.496L424.676 507.892H681.912C683.224 507.893 684.521 508.185 685.713 508.75C686.906 509.315 687.965 510.14 688.818 511.166C689.671 512.192 690.298 513.397 690.656 514.696C691.013 515.996 691.093 517.359 690.89 518.694L659.15 671.962C658.823 674.167 657.736 676.178 656.089 677.628C654.441 679.078 652.342 679.87 650.174 679.861V679.861ZM460.577 677.259H650.174C651.739 677.266 653.254 676.694 654.443 675.647C655.632 674.601 656.416 673.15 656.652 671.558L688.391 518.29C688.538 517.327 688.481 516.342 688.223 515.404C687.965 514.466 687.512 513.597 686.897 512.856C686.281 512.115 685.516 511.521 684.656 511.113C683.795 510.705 682.859 510.494 681.912 510.494H427.745L460.577 677.259Z" fill="#3F3D56"/>
<path d="M495.758 679.31L473.61 509.405L476.104 508.981L498.253 678.886L495.758 679.31Z" fill="#3F3D56"/>
<path d="M618.91 678.006L616.414 677.589L637.915 508.985L640.412 509.401L618.91 678.006Z" fill="#3F3D56"/>
<path d="M560.235 509.193H557.707V679.098H560.235V509.193Z" fill="#3F3D56"/>
<path d="M437.591 554.721L437.585 557.322L682.331 557.932L682.337 555.33L437.591 554.721Z" fill="#3F3D56"/>
<path d="M665.066 635.086L450.052 636.598L450.069 639.2L665.083 637.687L665.066 635.086Z" fill="#3F3D56"/>
<path d="M383.228 483.178C390.908 483.178 397.134 479.683 397.134 475.373C397.134 471.063 390.908 467.568 383.228 467.568C375.547 467.568 369.321 471.063 369.321 475.373C369.321 479.683 375.547 483.178 383.228 483.178Z" fill="#3F3D56"/>
</g>
</g>
<defs>
<clipPath id="clip0">
<rect width="1394" height="794" fill="white"/>
</clipPath>
<clipPath id="clip1">
<rect width="658" height="565" fill="white" transform="translate(33 162)"/>
</clipPath>
</defs>
</svg>
