<svg width="1312" height="680" viewBox="0 0 1312 680" fill="none" xmlns="http://www.w3.org/2000/svg">
<g clip-path="url(#clip0)">
<rect width="1312" height="680" fill="white"/>
<path d="M699.757 182.087C550.459 166.76 505.022 127.481 486.862 7H5V680H1312V625.306C1269.88 478.791 1212.06 434.672 1035.28 437.88C891.1 438.187 854.584 407.427 856.579 303.814C862.727 225.218 825.995 200.842 699.757 182.087Z" fill="#D9FFD0" stroke="#D9FFD0"/>
<g clip-path="url(#clip1)">
<path d="M250.148 274.246H247.755V203.149C247.755 197.745 246.774 192.394 244.867 187.402C242.96 182.409 240.166 177.873 236.643 174.052C233.12 170.231 228.938 167.2 224.335 165.132C219.732 163.064 214.798 162 209.816 162H70.9389C65.9567 162 61.0233 163.064 56.4203 165.132C51.8173 167.2 47.635 170.231 44.112 174.052C40.5891 177.873 37.7945 182.409 35.8879 187.402C33.9813 192.394 33 197.745 33 203.149V593.191C33 598.595 33.9813 603.945 35.8879 608.938C37.7945 613.93 40.5891 618.466 44.112 622.287C47.635 626.108 51.8173 629.14 56.4203 631.207C61.0233 633.275 65.9567 634.34 70.9389 634.34H209.816C214.798 634.34 219.732 633.275 224.335 631.207C228.938 629.14 233.12 626.108 236.643 622.287C240.166 618.466 242.96 613.93 244.867 608.938C246.774 603.945 247.755 598.595 247.755 593.191V324.853H250.148V274.246Z" fill="#E6E6E6"/>
<path d="M211.347 172.706H193.219C194.052 174.922 194.371 177.328 194.145 179.709C193.92 182.091 193.158 184.376 191.927 186.363C190.696 188.35 189.033 189.978 187.085 191.104C185.137 192.23 182.964 192.819 180.756 192.819H101.195C98.9878 192.819 96.8143 192.23 94.8663 191.104C92.9182 189.978 91.2553 188.35 90.0241 186.363C88.7928 184.376 88.0311 182.091 87.8058 179.709C87.5806 177.328 87.8988 174.922 88.7325 172.706H71.8008C68.0802 172.706 64.3959 173.5 60.9585 175.045C57.5211 176.589 54.3978 178.853 51.7669 181.706C49.136 184.559 47.049 187.947 45.6252 191.675C44.2014 195.404 43.4685 199.4 43.4685 203.435V592.905C43.4685 596.94 44.2013 600.936 45.6252 604.664C47.049 608.393 49.136 611.78 51.7668 614.634C54.3977 617.487 57.5211 619.751 60.9585 621.295C64.3959 622.839 68.0802 623.634 71.8008 623.634H211.347C215.068 623.634 218.752 622.839 222.189 621.295C225.627 619.751 228.75 617.487 231.381 614.634C234.012 611.78 236.099 608.393 237.523 604.664C238.946 600.936 239.679 596.94 239.679 592.905V203.435C239.679 199.4 238.946 195.404 237.523 191.675C236.099 187.947 234.012 184.559 231.381 181.706C228.75 178.853 225.627 176.589 222.189 175.045C218.752 173.5 215.068 172.706 211.347 172.706V172.706Z" fill="white"/>
<path d="M100.461 251.88H92.1291C91.8361 251.88 91.5551 252.007 91.348 252.231C91.1408 252.456 91.0244 252.761 91.0244 253.079V257.045C91.0244 257.363 91.1408 257.668 91.348 257.892C91.5551 258.117 91.8361 258.243 92.1291 258.243H93.5098V264.186H99.0802V258.243H100.461C100.754 258.243 101.035 258.117 101.242 257.892C101.449 257.668 101.566 257.363 101.566 257.045V253.079C101.566 252.761 101.449 252.456 101.242 252.231C101.035 252.007 100.754 251.88 100.461 251.88V251.88Z" fill="#E6E6E6"/>
<path d="M108.806 288.182C103.704 280.084 101.095 270.442 101.354 260.637C101.359 260.41 101.291 260.189 101.163 260.011C101.034 259.833 100.853 259.708 100.649 259.659V257.945H91.8496V259.635H91.7283C91.4889 259.635 91.2593 259.739 91.0902 259.923C90.9211 260.107 90.8263 260.356 90.8266 260.616C90.8266 260.639 90.8274 260.663 90.8291 260.687C91.5223 271.168 89.1814 280.568 83.8063 288.885C83.497 289.363 83.339 289.937 83.356 290.521L84.3182 322.802C84.3413 323.522 84.6199 324.205 85.0959 324.707C85.5719 325.21 86.2084 325.494 86.8726 325.499H106.776C107.448 325.493 108.091 325.203 108.568 324.691C109.046 324.178 109.32 323.483 109.332 322.755L109.703 291.412C109.714 290.262 109.401 289.135 108.806 288.182Z" fill="#E6E6E6"/>
<path d="M105.655 298.905H88.3311C88.0747 298.905 87.8213 298.965 87.5883 299.081C87.3553 299.198 87.1482 299.367 86.9812 299.578C86.8142 299.789 86.6913 300.037 86.6209 300.304C86.5504 300.572 86.5342 300.853 86.5732 301.128L89.1911 319.584H104.224L107.404 301.19C107.452 300.911 107.443 300.624 107.377 300.35C107.312 300.076 107.191 299.82 107.024 299.602C106.857 299.384 106.648 299.208 106.411 299.088C106.175 298.968 105.917 298.905 105.655 298.905V298.905Z" fill="white"/>
<path d="M193.211 348.584H184.879C184.586 348.584 184.305 348.71 184.098 348.935C183.891 349.159 183.774 349.464 183.774 349.782V353.748C183.774 354.066 183.891 354.371 184.098 354.596C184.305 354.82 184.586 354.947 184.879 354.947H186.26V360.89H191.83V354.947H193.211C193.504 354.947 193.785 354.82 193.992 354.596C194.199 354.371 194.315 354.066 194.315 353.748V349.782C194.315 349.464 194.199 349.159 193.992 348.935C193.785 348.71 193.504 348.584 193.211 348.584Z" fill="#E6E6E6"/>
<path d="M201.556 384.886C196.453 376.787 193.845 367.145 194.104 357.34C194.109 357.114 194.041 356.893 193.912 356.715C193.784 356.536 193.602 356.412 193.399 356.362V354.648H184.599V356.338H184.478C184.359 356.339 184.242 356.364 184.133 356.413C184.023 356.463 183.924 356.535 183.84 356.626C183.756 356.717 183.69 356.825 183.645 356.944C183.599 357.063 183.576 357.19 183.576 357.319C183.576 357.343 183.577 357.367 183.579 357.39C184.272 367.872 181.931 377.271 176.556 385.588C176.247 386.066 176.089 386.64 176.106 387.224L177.068 419.506C177.091 420.226 177.37 420.908 177.846 421.411C178.321 421.913 178.958 422.197 179.622 422.203H199.526C200.197 422.197 200.841 421.907 201.318 421.394C201.795 420.881 202.069 420.187 202.082 419.458L202.452 388.115C202.463 386.965 202.151 385.838 201.556 384.886V384.886Z" fill="#E6E6E6"/>
<path d="M198.405 395.609H181.081C180.825 395.609 180.571 395.669 180.338 395.785C180.105 395.901 179.898 396.07 179.731 396.282C179.564 396.493 179.441 396.74 179.371 397.008C179.3 397.275 179.284 397.556 179.323 397.831L181.941 416.287H196.974L200.154 397.893C200.202 397.615 200.193 397.328 200.127 397.054C200.062 396.779 199.941 396.524 199.774 396.306C199.607 396.088 199.398 395.912 199.161 395.792C198.925 395.671 198.667 395.609 198.405 395.609H198.405Z" fill="white"/>
<path d="M88.7474 485.294H84.7952C84.6563 485.294 84.523 485.354 84.4247 485.461C84.3264 485.567 84.2712 485.712 84.2712 485.862V487.744C84.2712 487.895 84.3264 488.039 84.4247 488.146C84.523 488.252 84.6563 488.312 84.7952 488.312H85.4502V491.131H88.0925V488.312H88.7474C88.8864 488.312 89.0197 488.252 89.1179 488.146C89.2162 488.039 89.2714 487.895 89.2714 487.744V485.862C89.2714 485.712 89.2162 485.567 89.1179 485.461C89.0197 485.354 88.8864 485.294 88.7474 485.294Z" fill="#E6E6E6"/>
<path d="M92.7059 502.514C90.2855 498.672 89.0481 494.098 89.1711 489.447C89.1733 489.34 89.1412 489.235 89.0802 489.151C89.0192 489.066 88.9331 489.007 88.8366 488.984V488.171H84.6625V488.972H84.605C84.5488 488.972 84.4931 488.985 84.4412 489.008C84.3892 489.031 84.342 489.066 84.3023 489.109C84.2626 489.152 84.2311 489.203 84.2097 489.26C84.1882 489.316 84.1772 489.377 84.1773 489.438C84.1773 489.449 84.1777 489.46 84.1785 489.471C84.5637 494.217 83.3832 498.957 80.8473 502.847C80.7005 503.074 80.6256 503.346 80.6336 503.623L81.09 518.935C81.101 519.277 81.2332 519.601 81.4589 519.839C81.6847 520.078 81.9867 520.212 82.3017 520.215H91.7428C92.0615 520.212 92.3665 520.074 92.593 519.831C92.8195 519.588 92.9495 519.259 92.9552 518.913L93.1311 504.046C93.1363 503.5 92.988 502.965 92.7059 502.514V502.514Z" fill="#E6E6E6"/>
<path d="M91.3472 508.142H82.3389V513.028H91.3472V508.142Z" fill="white"/>
<path d="M107.145 485.294H103.193C103.054 485.294 102.921 485.354 102.822 485.461C102.724 485.567 102.669 485.712 102.669 485.862V487.744C102.669 487.895 102.724 488.039 102.822 488.146C102.921 488.252 103.054 488.312 103.193 488.312H103.848V491.131H106.49V488.312H107.145C107.284 488.312 107.417 488.252 107.516 488.146C107.614 488.039 107.669 487.895 107.669 487.744V485.862C107.669 485.712 107.614 485.567 107.516 485.461C107.417 485.354 107.284 485.294 107.145 485.294Z" fill="#E6E6E6"/>
<path d="M111.104 502.514C108.683 498.672 107.446 494.098 107.569 489.447C107.571 489.34 107.539 489.235 107.478 489.151C107.417 489.066 107.331 489.007 107.234 488.984V488.171H103.06V488.972H103.003C102.946 488.972 102.891 488.985 102.839 489.008C102.787 489.031 102.74 489.066 102.7 489.109C102.66 489.152 102.629 489.203 102.607 489.26C102.586 489.316 102.575 489.377 102.575 489.438C102.575 489.449 102.575 489.46 102.576 489.471C102.961 494.217 101.781 498.957 99.245 502.847C99.0983 503.074 99.0233 503.346 99.0313 503.623L99.4877 518.935C99.4987 519.277 99.6309 519.601 99.8566 519.839C100.082 520.078 100.384 520.212 100.699 520.215H110.14C110.459 520.212 110.764 520.074 110.991 519.831C111.217 519.588 111.347 519.259 111.353 518.913L111.529 504.046C111.534 503.5 111.386 502.965 111.104 502.514Z" fill="#E6E6E6"/>
<path d="M109.745 508.142H100.737V513.028H109.745V508.142Z" fill="white"/>
<path d="M125.543 485.294H121.59C121.451 485.294 121.318 485.354 121.22 485.461C121.122 485.567 121.066 485.712 121.066 485.862V487.744C121.066 487.895 121.122 488.039 121.22 488.146C121.318 488.252 121.451 488.312 121.59 488.312H122.245V491.131H124.888V488.312H125.543C125.682 488.312 125.815 488.252 125.913 488.146C126.011 488.039 126.067 487.895 126.067 487.744V485.862C126.067 485.712 126.011 485.567 125.913 485.461C125.815 485.354 125.682 485.294 125.543 485.294Z" fill="#E6E6E6"/>
<path d="M129.501 502.514C127.081 498.672 125.843 494.098 125.966 489.447C125.968 489.34 125.936 489.235 125.875 489.151C125.814 489.066 125.728 489.007 125.632 488.984V488.171H121.458V488.972H121.4C121.344 488.972 121.288 488.985 121.236 489.008C121.184 489.031 121.137 489.066 121.098 489.109C121.058 489.152 121.026 489.203 121.005 489.26C120.983 489.316 120.972 489.377 120.972 489.438C120.972 489.449 120.973 489.46 120.974 489.471C121.359 494.217 120.178 498.957 117.642 502.847C117.496 503.074 117.421 503.346 117.429 503.623L117.885 518.935C117.896 519.277 118.028 519.601 118.254 519.839C118.48 520.078 118.782 520.212 119.097 520.215H128.538C128.857 520.212 129.162 520.074 129.388 519.831C129.615 519.588 129.745 519.259 129.75 518.913L129.926 504.046C129.931 503.5 129.783 502.965 129.501 502.514Z" fill="#E6E6E6"/>
<path d="M128.142 508.142H119.134V513.028H128.142V508.142Z" fill="white"/>
<path d="M178.736 447.883H170.405C170.26 447.883 170.116 447.914 169.982 447.975C169.848 448.035 169.726 448.123 169.623 448.234C169.521 448.345 169.44 448.478 169.384 448.623C169.329 448.768 169.3 448.924 169.3 449.081V453.048C169.3 453.366 169.416 453.67 169.623 453.895C169.831 454.12 170.112 454.246 170.405 454.246H171.785V460.189H177.356V454.246H178.736C179.029 454.246 179.31 454.12 179.518 453.895C179.725 453.67 179.841 453.366 179.841 453.048V449.081C179.841 448.924 179.813 448.768 179.757 448.623C179.701 448.478 179.62 448.345 179.518 448.234C179.415 448.123 179.293 448.035 179.159 447.975C179.025 447.914 178.882 447.883 178.736 447.883V447.883Z" fill="#E6E6E6"/>
<path d="M187.082 484.185C181.979 476.087 179.37 466.444 179.63 456.639C179.634 456.413 179.567 456.192 179.438 456.014C179.309 455.836 179.128 455.711 178.924 455.662V453.948H170.125V455.638H170.004C169.885 455.638 169.768 455.664 169.658 455.713C169.549 455.762 169.449 455.835 169.365 455.926C169.282 456.017 169.215 456.125 169.17 456.244C169.125 456.362 169.102 456.49 169.102 456.618C169.102 456.642 169.103 456.666 169.104 456.69C169.798 467.171 167.457 476.57 162.082 484.888C161.772 485.366 161.614 485.94 161.631 486.524L162.593 518.805C162.617 519.525 162.895 520.208 163.371 520.71C163.847 521.213 164.484 521.496 165.148 521.502H185.051C185.723 521.496 186.366 521.206 186.844 520.693C187.321 520.181 187.595 519.486 187.607 518.757L187.978 487.415C187.989 486.264 187.676 485.138 187.082 484.185Z" fill="#E6E6E6"/>
<path d="M183.931 494.908H166.607C166.35 494.908 166.097 494.968 165.864 495.084C165.631 495.2 165.424 495.37 165.257 495.581C165.09 495.792 164.967 496.04 164.897 496.307C164.826 496.575 164.81 496.856 164.849 497.13L167.467 515.587H182.499L185.679 497.193C185.727 496.914 185.718 496.627 185.653 496.353C185.587 496.079 185.467 495.823 185.3 495.605C185.133 495.387 184.924 495.211 184.687 495.091C184.451 494.97 184.192 494.908 183.931 494.908V494.908Z" fill="white"/>
<path d="M183.285 329.655H133.619C137.091 309.293 136.292 284.706 133.619 258.263H183.285C180.683 284.706 179.905 309.293 183.285 329.655Z" fill="#E6E6E6"/>
<path d="M158.751 304.993C165.361 304.993 170.719 299.181 170.719 292.012C170.719 284.843 165.361 279.032 158.751 279.032C152.142 279.032 146.783 284.843 146.783 292.012C146.783 299.181 152.142 304.993 158.751 304.993Z" fill="white"/>
<path d="M137.808 424.412H88.1416C91.6139 404.05 90.8151 379.462 88.1416 353.02H137.808C135.205 379.462 134.428 404.05 137.808 424.412Z" fill="#E6E6E6"/>
<path d="M113.274 399.749C119.883 399.749 125.242 393.937 125.242 386.769C125.242 379.6 119.883 373.788 113.274 373.788C106.664 373.788 101.306 379.6 101.306 386.769C101.306 393.937 106.664 399.749 113.274 399.749Z" fill="white"/>
<path d="M211.409 334.198H161.743C165.216 313.836 164.417 289.249 161.743 262.807H211.409C208.807 289.249 208.029 313.836 211.409 334.198Z" fill="#E6E6E6"/>
<path d="M186.875 309.536C193.485 309.536 198.843 303.724 198.843 296.555C198.843 289.387 193.485 283.575 186.875 283.575C180.266 283.575 174.908 289.387 174.908 296.555C174.908 303.724 180.266 309.536 186.875 309.536Z" fill="white"/>
<path d="M211.409 330.953H161.743C165.216 310.591 164.417 286.004 161.743 259.562H211.409C208.807 286.004 208.029 310.591 211.409 330.953Z" fill="#E6E6E6"/>
<path d="M186.875 306.291C193.485 306.291 198.843 300.479 198.843 293.31C198.843 286.141 193.485 280.33 186.875 280.33C180.266 280.33 174.908 286.141 174.908 293.31C174.908 300.479 180.266 306.291 186.875 306.291Z" fill="white"/>
<path d="M211.409 334.198H161.743C165.216 313.836 164.417 289.249 161.743 262.807H211.409C208.807 289.249 208.029 313.836 211.409 334.198Z" fill="#E6E6E6"/>
<path d="M186.875 309.536C193.485 309.536 198.843 303.724 198.843 296.555C198.843 289.387 193.485 283.575 186.875 283.575C180.266 283.575 174.908 289.387 174.908 296.555C174.908 303.724 180.266 309.536 186.875 309.536Z" fill="white"/>
<path d="M222.779 325.761H60.0176V345.232H222.779V325.761Z" fill="#E6E6E6"/>
<path d="M222.779 422.464H60.0176V441.935H222.779V422.464Z" fill="#E6E6E6"/>
<path d="M222.779 519.168H60.0176V538.638H222.779V519.168Z" fill="#E6E6E6"/>
<path d="M505.908 598.159L465.359 567.052C479.035 552.603 491.473 532.029 503.369 508.766L543.917 539.873C527.715 559.831 513.989 579.418 505.908 598.159Z" fill="#6C63FF"/>
<path d="M505.919 565.041C512.529 565.041 517.887 559.229 517.887 552.06C517.887 544.891 512.529 539.08 505.919 539.08C499.31 539.08 493.951 544.891 493.951 552.06C493.951 559.229 499.31 565.041 505.919 565.041Z" fill="white"/>
<path d="M310.306 456.213H305.855C305.698 456.213 305.548 456.281 305.437 456.401C305.327 456.521 305.264 456.684 305.264 456.853V458.972C305.264 459.056 305.28 459.14 305.309 459.217C305.339 459.295 305.382 459.366 305.437 459.425C305.492 459.484 305.557 459.532 305.629 459.564C305.7 459.596 305.777 459.612 305.855 459.612H306.592V462.787H309.568V459.612H310.306C310.462 459.612 310.612 459.545 310.723 459.425C310.833 459.305 310.896 459.142 310.896 458.972V456.853C310.896 456.684 310.833 456.521 310.723 456.401C310.612 456.281 310.462 456.213 310.306 456.213V456.213Z" fill="#E6E6E6"/>
<path d="M314.764 475.606C312.038 471.28 310.644 466.129 310.783 460.891C310.785 460.77 310.749 460.652 310.68 460.557C310.612 460.462 310.515 460.395 310.406 460.369V459.453H305.705V460.356H305.64C305.577 460.356 305.514 460.37 305.456 460.396C305.397 460.422 305.344 460.461 305.3 460.51C305.255 460.558 305.219 460.616 305.195 460.68C305.171 460.743 305.159 460.811 305.159 460.88C305.159 460.893 305.159 460.905 305.16 460.918C305.594 466.263 304.264 471.601 301.408 475.982C301.243 476.237 301.159 476.544 301.168 476.856L301.682 494.101C301.694 494.485 301.843 494.85 302.097 495.119C302.352 495.387 302.692 495.539 303.046 495.542H313.679C314.038 495.538 314.382 495.383 314.637 495.11C314.892 494.836 315.038 494.465 315.045 494.075L315.243 477.332C315.248 476.717 315.081 476.115 314.764 475.606V475.606Z" fill="#6C63FF"/>
<path opacity="0.2" d="M309.378 456.904C309.378 457.27 309.243 457.621 309.005 457.88C308.766 458.139 308.442 458.285 308.104 458.285C307.767 458.285 307.443 458.139 307.204 457.88C306.965 457.621 306.831 457.27 306.831 456.904" fill="black"/>
<path d="M312.693 478.929H303.717V485.419H312.693V478.929Z" fill="white"/>
<path d="M451.159 523.583H442.827C442.534 523.583 442.253 523.71 442.046 523.934C441.839 524.159 441.723 524.464 441.723 524.782V528.748C441.723 529.066 441.839 529.371 442.046 529.595C442.253 529.82 442.534 529.946 442.827 529.946H444.208V535.89H449.779V529.946H451.159C451.452 529.946 451.733 529.82 451.94 529.595C452.148 529.371 452.264 529.066 452.264 528.748V524.782C452.264 524.464 452.148 524.159 451.94 523.934C451.733 523.71 451.452 523.583 451.159 523.583V523.583Z" fill="#E6E6E6"/>
<path d="M459.505 559.885C454.402 551.787 451.793 542.145 452.053 532.34C452.057 532.113 451.989 531.892 451.861 531.714C451.732 531.536 451.551 531.411 451.347 531.362V529.648H442.548V531.338H442.427C442.308 531.338 442.191 531.364 442.081 531.413C441.972 531.462 441.872 531.535 441.788 531.626C441.705 531.717 441.638 531.825 441.593 531.944C441.548 532.063 441.525 532.19 441.525 532.319C441.525 532.342 441.526 532.366 441.527 532.39C442.221 542.871 439.88 552.271 434.505 560.588C434.195 561.066 434.037 561.64 434.054 562.224L435.016 594.505C435.04 595.225 435.318 595.908 435.794 596.41C436.27 596.913 436.907 597.197 437.571 597.202H457.474C458.146 597.196 458.789 596.906 459.267 596.394C459.744 595.881 460.018 595.186 460.03 594.458L460.401 563.115C460.412 561.964 460.099 560.838 459.505 559.885V559.885Z" fill="#6C63FF"/>
<path opacity="0.2" d="M449.422 524.876C449.422 525.562 449.171 526.219 448.724 526.704C448.277 527.188 447.671 527.461 447.039 527.461C446.407 527.461 445.801 527.188 445.354 526.704C444.907 526.219 444.656 525.562 444.656 524.876" fill="black"/>
<path d="M456.354 570.608H439.03C438.773 570.608 438.52 570.668 438.287 570.784C438.054 570.901 437.847 571.07 437.68 571.281C437.513 571.492 437.39 571.74 437.319 572.007C437.249 572.275 437.233 572.556 437.272 572.831L439.89 591.287H454.922L458.102 572.893C458.15 572.614 458.141 572.328 458.075 572.053C458.01 571.779 457.889 571.523 457.722 571.305C457.556 571.087 457.346 570.912 457.11 570.791C456.873 570.671 456.615 570.608 456.354 570.608V570.608Z" fill="white"/>
<path d="M427.387 598.108H377.721C381.193 577.746 380.395 553.158 377.721 526.716H427.387C424.785 553.158 424.007 577.746 427.387 598.108Z" fill="#6C63FF"/>
<path d="M402.853 573.445C409.463 573.445 414.821 567.634 414.821 560.465C414.821 553.296 409.463 547.485 402.853 547.485C396.244 547.485 390.885 553.296 390.885 560.465C390.885 567.634 396.244 573.445 402.853 573.445Z" fill="white"/>
<path d="M224.241 373.428L235.391 372.328L242.486 353.64L229.816 345.944L224.241 373.428Z" fill="#FFB8B8"/>
<path d="M326.565 424.735C326.936 423.732 327.082 422.648 326.99 421.572C326.899 420.496 326.573 419.459 326.04 418.546C325.507 417.634 324.781 416.872 323.923 416.323C323.065 415.774 322.099 415.455 321.104 415.39L303.793 414.271L301.244 423.464L319.065 428.772C320.554 429.216 322.142 429.049 323.525 428.305C324.908 427.56 325.991 426.289 326.565 424.735V424.735Z" fill="#FFB8B8"/>
<path d="M307.977 428.927L307.786 411.676L269.334 405.022L239.711 368.172C238.169 366.255 236.04 365.009 233.716 364.664C231.393 364.319 229.033 364.9 227.073 366.298C225.887 367.144 224.887 368.263 224.143 369.575C223.399 370.887 222.93 372.36 222.769 373.89C222.608 375.42 222.759 376.97 223.21 378.43C223.662 379.89 224.404 381.225 225.384 382.34L249.823 414.96L307.977 428.927Z" fill="#575A89"/>
<path d="M215.625 622.984H225.761L250.903 499.697L276.948 537.783L292.152 620.236H301.782L299.754 531.737L265.799 437.191H232.35C223.209 455.134 216.039 473.629 224.241 492.709L215.625 622.984Z" fill="#2F2E41"/>
<path d="M285.939 630.472C285.827 630.861 285.792 631.272 285.838 631.676C285.884 632.081 286.008 632.47 286.203 632.818C286.398 633.167 286.66 633.466 286.97 633.696C287.28 633.926 287.632 634.082 288.002 634.153L312.805 638.927C313.785 639.122 314.796 638.921 315.649 638.362C316.502 637.803 317.137 636.925 317.434 635.893V635.893C317.723 634.908 317.683 633.843 317.32 632.887C316.957 631.93 316.295 631.143 315.451 630.663C309.997 627.626 305.303 623.2 301.772 617.765C299.046 620.518 295.999 620.259 292.764 618.23L289.332 618.695L285.939 630.472Z" fill="#2F2E41"/>
<path d="M210.932 630.472C210.82 630.861 210.786 631.272 210.831 631.676C210.877 632.081 211.002 632.47 211.197 632.818C211.392 633.167 211.653 633.466 211.963 633.696C212.273 633.926 212.625 634.082 212.995 634.153L237.798 638.927C238.778 639.122 239.79 638.921 240.643 638.362C241.495 637.803 242.13 636.925 242.427 635.893V635.893C242.717 634.908 242.676 633.843 242.313 632.887C241.951 631.93 241.289 631.143 240.444 630.663C234.99 627.626 230.297 623.2 226.765 617.765C224.039 620.518 220.993 620.259 217.757 618.23L214.326 618.695L210.932 630.472Z" fill="#2F2E41"/>
<path d="M242.739 360.511C250.576 360.511 256.93 353.62 256.93 345.119C256.93 336.619 250.576 329.728 242.739 329.728C234.902 329.728 228.549 336.619 228.549 345.119C228.549 353.62 234.902 360.511 242.739 360.511Z" fill="#FFB8B8"/>
<path d="M230.069 441.314L267.066 440.215L256.201 403.126C262.953 391.386 256.157 379.657 246.54 367.931L238.938 362.434L226.775 361.335C221.509 367.447 218.627 375.532 218.734 383.896C218.975 401.808 221.899 421.306 230.069 441.314Z" fill="#575A89"/>
<path d="M315.071 466.279C315.775 465.515 316.302 464.581 316.608 463.553C316.915 462.524 316.991 461.432 316.832 460.366C316.673 459.299 316.282 458.289 315.692 457.418C315.102 456.548 314.33 455.842 313.439 455.358L297.929 446.943L292.252 454.307L306.711 466.791C307.919 467.834 309.439 468.359 310.981 468.264C312.522 468.17 313.978 467.463 315.071 466.279V466.279Z" fill="#FFB8B8"/>
<path d="M296.46 462.202L302.542 446.261L269.603 423.736L255.734 377.219C255.012 374.798 253.506 372.744 251.495 371.435C249.484 370.127 247.103 369.654 244.795 370.103V370.103C243.397 370.375 242.072 370.977 240.912 371.866C239.753 372.755 238.787 373.909 238.084 375.247C237.381 376.585 236.957 378.074 236.843 379.609C236.729 381.144 236.927 382.688 237.424 384.131L248.061 424.549L296.46 462.202Z" fill="#575A89"/>
<path d="M219.426 339.073C219.426 345.062 223.012 354.336 227.535 358.312C230.578 360.987 234.6 360.874 236.151 357.213C237.742 353.456 243.225 344.627 252.875 339.073C265.74 331.669 248.313 319.002 236.151 320.933C227.012 322.385 219.426 329.055 219.426 339.073Z" fill="#2F2E41"/>
<path d="M228.042 330.828C233.64 330.828 238.178 325.906 238.178 319.834C238.178 313.762 233.64 308.84 228.042 308.84C222.444 308.84 217.906 313.762 217.906 319.834C217.906 325.906 222.444 330.828 228.042 330.828Z" fill="#2F2E41"/>
<path d="M239.698 315.986C239.697 313.215 238.731 310.546 236.992 308.515C235.253 306.484 232.871 305.24 230.323 305.034C230.574 305.014 230.826 304.993 231.083 304.993C233.771 304.993 236.349 306.151 238.25 308.213C240.151 310.274 241.219 313.071 241.219 315.986C241.219 318.902 240.151 321.698 238.25 323.76C236.349 325.822 233.771 326.98 231.083 326.98C230.826 326.98 230.574 326.959 230.323 326.938C232.871 326.732 235.253 325.489 236.992 323.458C238.731 321.427 239.697 318.758 239.698 315.986Z" fill="#2F2E41"/>
<path d="M242.993 350.616C244.252 350.616 245.273 349.14 245.273 347.318C245.273 345.497 244.252 344.02 242.993 344.02C241.733 344.02 240.712 345.497 240.712 347.318C240.712 349.14 241.733 350.616 242.993 350.616Z" fill="#FFB8B8"/>
<path d="M530.179 602.823H372.392L338.979 431.506H310.464V423.819H344.724L378.137 595.135H530.179V602.823Z" fill="#3F3D56"/>
<path d="M395.515 634.121C403.903 634.121 410.702 626.746 410.702 617.648C410.702 608.55 403.903 601.175 395.515 601.175C387.127 601.175 380.327 608.55 380.327 617.648C380.327 626.746 387.127 634.121 395.515 634.121Z" fill="#3F3D56"/>
<path d="M508.916 634.121C517.304 634.121 524.104 626.746 524.104 617.648C524.104 608.55 517.304 601.175 508.916 601.175C500.528 601.175 493.729 608.55 493.729 617.648C493.729 626.746 500.528 634.121 508.916 634.121Z" fill="#3F3D56"/>
<path d="M527.302 599.203H373.784L346.698 454.019H552.721C553.772 454.019 554.811 454.266 555.766 454.743C556.721 455.22 557.569 455.916 558.252 456.783C558.936 457.649 559.438 458.666 559.724 459.763C560.011 460.86 560.074 462.011 559.912 463.138L534.491 592.534C534.229 594.396 533.359 596.094 532.039 597.318C530.719 598.542 529.038 599.211 527.302 599.203V599.203ZM375.452 597.006H527.302C528.555 597.012 529.768 596.529 530.721 595.646C531.673 594.762 532.301 593.537 532.49 592.193L557.91 462.797C558.028 461.984 557.982 461.153 557.776 460.361C557.569 459.569 557.207 458.835 556.713 458.21C556.22 457.584 555.608 457.082 554.919 456.738C554.23 456.393 553.48 456.215 552.721 456.215H349.156L375.452 597.006Z" fill="#3F3D56"/>
<path d="M403.629 598.738L385.89 455.296L387.888 454.938L405.626 598.38L403.629 598.738Z" fill="#3F3D56"/>
<path d="M502.263 597.637L500.263 597.285L517.484 454.941L519.483 455.293L502.263 597.637Z" fill="#3F3D56"/>
<path d="M455.269 455.117H453.244V598.559H455.269V455.117Z" fill="#3F3D56"/>
<path d="M357.042 493.554L357.037 495.75L553.056 496.265L553.061 494.068L357.042 493.554Z" fill="#3F3D56"/>
<path d="M539.229 561.401L367.021 562.678L367.035 564.875L539.243 563.598L539.229 561.401Z" fill="#3F3D56"/>
<path d="M313.501 433.153C319.653 433.153 324.639 430.203 324.639 426.564C324.639 422.925 319.653 419.975 313.501 419.975C307.35 419.975 302.364 422.925 302.364 426.564C302.364 430.203 307.35 433.153 313.501 433.153Z" fill="#3F3D56"/>
</g>
</g>
<defs>
<clipPath id="clip0">
<rect width="1312" height="680" fill="white"/>
</clipPath>
<clipPath id="clip1">
<rect width="527" height="477" fill="white" transform="translate(33 162)"/>
</clipPath>
</defs>
</svg>
